<svg xmlns="http://www.w3.org/2000/svg" xmlns:xlink="http://www.w3.org/1999/xlink" width="1736" height="1080" viewBox="0 0 1736 1080">
  <defs>
    <linearGradient id="linear-gradient" x1="0.5" y1="1" x2="0.5" gradientUnits="objectBoundingBox">
      <stop offset="0" stop-color="gray" stop-opacity="0.251"/>
      <stop offset="0.535" stop-color="gray" stop-opacity="0.122"/>
      <stop offset="1" stop-color="gray" stop-opacity="0.102"/>
    </linearGradient>
    <clipPath id="clip-Web_1920_1">
      <rect width="1736" height="1080"/>
    </clipPath>
  </defs>
  <g id="Web_1920_1" data-name="Web 1920 – 1" clip-path="url(#clip-Web_1920_1)">
    <rect width="1736" height="1080" fill="#fff"/>
    <g id="bg-1" transform="translate(819 342)">
      <path id="パス_1" data-name="パス 1" d="M189.734,316v36a57,57,0,0,1,0,114v36h186V316Z" transform="translate(-5.734 -91)" fill="#f2f2f2"/>
      <circle id="楕円形_1" data-name="楕円形 1" cx="45" cy="45" r="45" transform="translate(139 273)" fill="#f2f2f2"/>
      <path id="パス_2" data-name="パス 2" d="M866,363.051l-73-45V666h73Z" fill="#f2f2f2"/>
      <path id="パス_3" data-name="パス 3" d="M681,666h73V294.016l-73-45Z" fill="#f2f2f2"/>
      <path id="パス_4" data-name="パス 4" d="M642,224.98,277,0V203H394V437H277V666H642Z" fill="#f2f2f2"/>
      <path id="パス_5" data-name="パス 5" d="M905,387.09V666h38l103-192Z" fill="#f2f2f2"/>
      <path id="パス_6" data-name="パス 6" d="M1052.548,623.891c-60.58,45.283-77.661,124.84-77.661,124.84s81.138,6.138,141.718-39.145,77.661-124.84,77.661-124.84S1113.128,578.608,1052.548,623.891Z" transform="translate(-808.734 -76)" fill="#3f3d56"/>
      <path id="パス_7" data-name="パス 7" d="M974.934,747.964s-.889-.5-2.5-1.485c-1.283-.789-3.045-1.89-5.173-3.3-19.037-12.544-68.352-49.438-88.579-106.364-25.307-71.274,4.576-146.958,4.576-146.958s65.186,36.646,92.876,102.469c1.207,2.835,2.323,5.727,3.374,8.676,22.021,62.015,2.257,127.368-3.247,143.3C975.435,746.689,974.934,747.964,974.934,747.964Z" transform="translate(-5.734 -91)" fill="#e49356"/>
      <path id="パス_8" data-name="パス 8" d="M975.229,750.214l-.928-.673c-.663-.479-66.411-48.782-83.3-122S912.037,482.1,912.423,481.379l.54-1.012.928.673c.663.479,66.411,48.782,83.3,122h0c16.895,73.216-21.041,145.443-21.427,146.164ZM913.654,483.363c-4.56,9.1-36.332,76.028-20.709,143.73s73.508,113.944,81.592,120.124c4.56-9.1,36.332-76.028,20.709-143.73h0C979.625,535.785,921.738,489.543,913.654,483.363Z" transform="translate(-5.734 -91)" fill="#3f3d56"/>
      <path id="パス_9" data-name="パス 9" d="M976.263,744.3c-1.477.86-2.768,1.584-3.828,2.176-2.336,1.275-3.631,1.918-3.631,1.918s-.613-1.842-1.543-5.214c-5.129-18.445-19.813-82.729,4.762-141.774q1.938-4.64,4.111-9.079c1.207,2.835,2.323,5.727,3.374,8.676C1001.531,663.021,981.767,728.374,976.263,744.3Z" transform="translate(-5.734 -91)" opacity="0.1"/>
      <path id="パス_10" data-name="パス 10" d="M1077.836,645.081c-29.052,69.832-101.995,105.893-101.995,105.893s-25.84-77.158,3.212-146.99,101.995-105.893,101.995-105.893S1106.888,575.25,1077.836,645.081Z" transform="translate(-559.734 -79)" fill="#e49356"/>
      <rect id="長方形_1" data-name="長方形 1" width="268.701" height="1.999" transform="translate(415.89 670.564) rotate(-67.243)" fill="#3f3d56"/>
      <path id="パス_11" data-name="パス 11" d="M1183.234,771.491c0,9.365-53.869,17.93-142.932,24.505-16.193,1.191-33.552,2.317-51.954,3.377q-23.864,1.37-50.008,2.578Q913,803.1,885.728,804.089c-57.436,2.088-120.922,3.589-188.37,4.34q-24.548.269-49.765.424-26.25.147-53.109.147c-325.16,0-588.75-16.788-588.75-37.509s263.59-37.509,588.75-37.509c139.983,0,268.545,3.116,369.585,8.3q5.578.294,11.045.571a.115.115,0,0,0,.071.016C1102.461,749.76,1183.234,760.022,1183.234,771.491Z" transform="translate(-5.734 -91)" fill="#3f3d56"/>
      <path id="パス_12" data-name="パス 12" d="M1183.234,771.491c0,9.365-53.869,17.93-142.932,24.505-16.193,1.191-33.552,2.317-51.954,3.377q-23.864,1.37-50.008,2.578Q913,803.1,885.728,804.089c-57.436,2.088-120.922,3.589-188.37,4.34q-24.548.269-49.765.424-26.25.147-53.109.147c-325.16,0-588.75-16.788-588.75-37.509s263.59-37.509,588.75-37.509c139.983,0,268.545,3.116,369.585,8.3q5.578.294,11.045.571a.115.115,0,0,0,.071.016C1102.461,749.76,1183.234,760.022,1183.234,771.491Z" transform="translate(-5.734 -91)" opacity="0.15"/>
      <path id="パス_13" data-name="パス 13" d="M1137.984,764.89c0,7.83-50.22,14.99-133.25,20.49-15.09.99-31.28,1.93-48.43,2.82q-22.245,1.14-46.62,2.15-23.625.975-49.05,1.79c-53.55,1.75-112.74,3-175.62,3.63q-22.875.225-46.39.35-24.48.135-49.51.13c-303.14,0-548.88-14.04-548.88-31.36s245.74-31.36,548.88-31.36c67.03,0,131.25.69,190.63,1.95h.15c56.16,1.19,107.99,2.89,153.77,5q5.205.24,10.3.47a.1.1,0,0,0,.07.02c20.97,1.02,40.59,2.12,58.67,3.3.2.01.4.03.6.04C1087.194,749.82,1137.984,757.01,1137.984,764.89Z" transform="translate(-5.734 -91)" fill="#3f3d56"/>
      <path id="パス_14" data-name="パス 14" d="M1002.7,744.27c-7.43,48.31-54.28,32.12-110.97,32.12-59.89,0-108.79,18.07-111.84-40.91,56.16,1.19,107.99,2.89,153.77,5q5.205.24,10.3.47a.1.1,0,0,0,.07.02C965,741.99,984.624,743.09,1002.7,744.27Z" transform="translate(-5.734 -91)" opacity="0.1"/>
      <path id="パス_15" data-name="パス 15" d="M323.011,729.573c0,17.417-10.353,23.5-23.125,23.5-.3,0-.592,0-.885-.011-.592-.013-1.179-.04-1.758-.081-11.527-.815-20.482-7.209-20.482-23.406,0-16.759,21.416-37.909,23.029-39.478l0,0c.062-.062.094-.091.094-.091S323.011,712.159,323.011,729.573Z" transform="translate(-5.734 -91)" fill="#e49356"/>
      <path id="パス_16" data-name="パス 16" d="M299.043,750.406l8.458-11.817-8.48,13.115L299,753.06c-.592-.013-1.179-.04-1.758-.081l.911-17.423-.006-.136.015-.023.087-1.647-8.5-13.147,8.526,11.913.021.349.687-13.164-7.277-13.586,7.366,11.276.717-27.295,0-.094v.091l-.119,21.523,7.245-8.533-7.275,10.387-.192,11.787,6.766-11.313-6.794,13.047-.106,6.553,9.818-15.746-9.857,18.032Z" transform="translate(-5.734 -91)" fill="#3f3d56"/>
      <path id="パス_17" data-name="パス 17" d="M779.734,717.393c0-66.274,50.144-120,112-120s112,53.726,112,120-50.144,47-112,47S779.734,783.668,779.734,717.393Z" transform="translate(-5.734 -91)" fill="#3f3d56"/>
      <rect id="長方形_2" data-name="長方形 2" width="2" height="135.181" transform="translate(151.384 547.331)" fill="#3f3d56"/>
      <circle id="楕円形_2" data-name="楕円形 2" cx="19.116" cy="19.116" r="19.116" transform="translate(133.267 528.215)" fill="#3f3d56"/>
      <path id="パス_18" data-name="パス 18" d="M158.118,721.646S155.387,662.91,99.4,669.737" transform="translate(-5.734 -91)" fill="#3f3d56"/>
      <path id="パス_19" data-name="パス 19" d="M714.748,660.574c.5,1.764,1.056,3.517,1.651,5.258-2.67-2.624-5.29-5.32-7.96-7.928,1.071.334,2.139.667,3.148,1.063a19.1,19.1,0,0,1,3.16,1.608Zm-12.932-8.765c-15.735-13.682-33.967-24.274-50.093-37.539,8.806,4.332,17.371,9.38,25.867,14.221q15.117,8.612,30.594,16.555A24.949,24.949,0,0,1,701.816,651.809Zm6.731-34.451q.376-.384.753-.773c.007,1.944.022,3.761.045,5.411q-2.115-.7-4.218-1.439a37.231,37.231,0,0,0,3.419-3.2ZM569.941,654.4a129.412,129.412,0,0,0,16.791-23.952c6.247,10.914,16.4,18.783,25.032,27.923C597.852,656.533,583.919,655.017,569.941,654.4Z" transform="translate(-5.734 -91)" fill="url(#linear-gradient)"/>
      <path id="パス_20" data-name="パス 20" d="M123.011,755.573c0,17.417-10.353,23.5-23.125,23.5-.3,0-.592,0-.885-.011-.592-.013-1.179-.04-1.758-.081-11.527-.815-20.482-7.209-20.482-23.406,0-16.759,21.416-37.909,23.029-39.478l0,0c.062-.062.094-.091.094-.091S123.011,738.159,123.011,755.573Z" transform="translate(-5.734 -91)" fill="#e49356"/>
      <path id="パス_21" data-name="パス 21" d="M99.043,776.406l8.458-11.817L99.021,777.7,99,779.06c-.592-.013-1.179-.04-1.758-.081l.911-17.423-.006-.136.015-.023.087-1.647-8.5-13.147,8.526,11.913.021.349.687-13.164-7.277-13.586,7.366,11.276L99.79,716.1l0-.094v.091l-.119,21.523,7.245-8.533L99.643,739.47l-.192,11.787,6.766-11.313-6.794,13.047-.106,6.553,9.818-15.746-9.857,18.032Z" transform="translate(-5.734 -91)" fill="#3f3d56"/>
      <circle id="楕円形_3" data-name="楕円形 3" cx="10" cy="10" r="10" transform="translate(119 506)" fill="#e49356"/>
      <path id="パス_22" data-name="パス 22" d="M777.722,467.031S814,459,818,491s-19.266,38.04-19.266,38.04L784,533l-57-15,8-23Z" transform="translate(-5.734 -91)" fill="#2f2e41"/>
      <circle id="楕円形_4" data-name="楕円形 4" cx="49.023" cy="49.023" r="49.023" transform="translate(709.892 279.75)" fill="#2f2e41"/>
      <path id="パス_23" data-name="パス 23" d="M586.65,430.572l9.961,2,33.866,50.077-14.941,2Z" fill="#2f2e41"/>
      <path id="パス_24" data-name="パス 24" d="M351.456,724.748a195.667,195.667,0,0,0,9.9,25.848A241.242,241.242,0,0,0,394.4,741.18c.332-.121-6.181-8.64-6.865-9.336-2.58-2.626-5.921-5.694-9.332-7.178-3.44-1.5-7.677-.354-11.359-.166Q359.158,724.892,351.456,724.748Z" transform="translate(-5.734 -91)" fill="#fbbebe"/>
      <path id="パス_25" data-name="パス 25" d="M378.263,738.126c-5.614-1.757-9.026-7.406-11.31-12.854s-4.125-11.389-8.457-15.387c-1.66.079-3,1.428-3.817,2.88s-1.31,3.09-2.259,4.461c-1.806,2.61-4.982,3.872-7.253,6.085-2.381,2.32-3.682,5.6-6.147,7.834-3.1,2.8-7.472,3.5-11.533,4.424a73.961,73.961,0,0,0-18.048,6.691,30.305,30.305,0,0,1-6.686,3,25.112,25.112,0,0,1-7.819.261l-17.957-1.28a14.03,14.03,0,0,0-4.793.21c-3.691,1.036-5.983,5.156-5.712,9s2.663,7.289,5.683,9.662a37.826,37.826,0,0,0,10.227,5.182,303.05,303.05,0,0,0,48.148,13.753l.009,3.554a83.156,83.156,0,0,0,36.652,8.534,5.7,5.7,0,0,0,2.743-.475c1.26-.684,1.844-2.156,2.31-3.518a142.478,142.478,0,0,0,7.49-39.038,29.635,29.635,0,0,0-.773-10.056c-.978-3.233,2.39-1.874-.727-3.14" transform="translate(-5.734 -91)" fill="#2f2e41"/>
      <path id="パス_26" data-name="パス 26" d="M722.668,670.43c-53.24,3.188-105.861-12.4-159.169-14.062-6.627-.207-13.327-.192-19.8,1.262-6.846,1.538-13.227,4.635-19.593,7.6-28.591,13.3-58.169,24.321-87.711,35.324l-33.935,12.64c-6.781,2.526-13.808,5.091-21.027,4.65-3.236-.2-7.208-.687-9.028,2.01-5.521,8.179-2.912,20.2.736,29.375,1.184,2.979,3.187,6.194,6.36,6.533,2.234.239,4.311-1.055,6.482-1.636,6.177-1.654,12.335,2.5,18.692,3.177,7.854.836,15.147-3.638,22.559-6.378,12.294-4.544,25.737-4.4,38.66-6.553,21.669-3.609,41.752-13.67,60.525-25.133,7.149-4.365,14.382-9.041,22.594-10.638,9.442-1.836,19.141.6,28.4,3.216a655.9,655.9,0,0,1,65.107,22.17c11.215,4.488,22.349,9.3,34.018,12.4a123,123,0,0,0,76.239-4.445c8.522-3.368,17.781-9.322,18.269-18.515.278-5.242-3.787-9.86-6.5-14.343-1.742-2.875-3.486-5.751-5.383-8.525C749.98,687.139,738.839,669.462,722.668,670.43Z" transform="translate(-5.734 -91)" fill="#2f2e41"/>
      <path id="パス_27" data-name="パス 27" d="M722.668,670.43c-53.24,3.188-105.861-12.4-159.169-14.062-6.627-.207-13.327-.192-19.8,1.262-6.846,1.538-13.227,4.635-19.593,7.6-28.591,13.3-58.169,24.321-87.711,35.324l-33.935,12.64c-6.781,2.526-13.808,5.091-21.027,4.65-3.236-.2-7.208-.687-9.028,2.01-5.521,8.179-2.912,20.2.736,29.375,1.184,2.979,3.187,6.194,6.36,6.533,2.234.239,4.311-1.055,6.482-1.636,6.177-1.654,12.335,2.5,18.692,3.177,7.854.836,15.147-3.638,22.559-6.378,12.294-4.544,25.737-4.4,38.66-6.553,21.669-3.609,41.752-13.67,60.525-25.133,7.149-4.365,14.382-9.041,22.594-10.638,9.442-1.836,19.141.6,28.4,3.216a655.9,655.9,0,0,1,65.107,22.17c11.215,4.488,22.349,9.3,34.018,12.4a123,123,0,0,0,76.239-4.445c8.522-3.368,17.781-9.322,18.269-18.515.278-5.242-3.787-9.86-6.5-14.343-1.742-2.875-3.486-5.751-5.383-8.525C749.98,687.139,738.839,669.462,722.668,670.43Z" transform="translate(-5.734 -91)" opacity="0.1"/>
      <path id="パス_28" data-name="パス 28" d="M453.673,727.34q12.5,4.266,25.22,7.845c4.747-7.794,13.627-13.217,15.651-22.126a1.945,1.945,0,0,0,0-1.193,2.009,2.009,0,0,0-.955-.854,46.959,46.959,0,0,0-19.748-5.787c-5.472-.346-7.97,5.368-10.451,9.384C462.388,716.234,455.9,728.1,453.673,727.34Z" transform="translate(-5.734 -91)" fill="#fbbebe"/>
      <path id="パス_29" data-name="パス 29" d="M465.355,721.651c-4.922-1.032-9.738-3.677-12.251-8.055-1.177-2.051-2.429-4.817-4.78-4.662-2.182.144-3.184,2.747-3.675,4.889-1.839,8.022-3.646,16.108-6.873,23.675s-8,14.67-14.735,19.353c-3.088,2.148-6.531,3.753-9.55,6-2.712,2.018-5.077,4.548-8.073,6.109a45.542,45.542,0,0,1-6.191,2.309,41.936,41.936,0,0,0-8.866,4.315,17.836,17.836,0,0,0-6.037,5.768,8.46,8.46,0,0,0-.5,8.073,8.737,8.737,0,0,0,5.91,4.047,25.3,25.3,0,0,0,7.345.184c9.707-.715,19.4-1.58,29.1-2.444a83.43,83.43,0,0,0,12.2-1.7c2.124-.512,4.2-1.191,6.32-1.736a52.132,52.132,0,0,1,11.086-1.614,9.288,9.288,0,0,1,3.234.3c2.246.734,3.84,2.968,6.158,3.422a9.775,9.775,0,0,0,4.385-.586c6.985-1.91,14.325-1.859,21.554-2.249,3.185-.172,6.913-.777,8.374-3.628,1.822-3.555-1.2-7.531-2.4-11.343a34.721,34.721,0,0,1-1-7.438,45.546,45.546,0,0,0-5.346-17.685c-2.471-4.537-5.845-9.554-4.108-14.424.589-1.652,1.761-3.191,1.644-4.943C487.762,719.9,469.817,722.587,465.355,721.651Z" transform="translate(-5.734 -91)" fill="#2f2e41"/>
      <path id="パス_30" data-name="パス 30" d="M642.828,585.017a41.666,41.666,0,0,1-21.214-21.071c-.889-2.022-1.62-4.132-2.476-6.173a46.9,46.9,0,0,0-12.678-17.606c-1.386-1.176-3.013-2.3-4.706-1.991-1.625.3-2.9,1.9-3.462,3.707a15.122,15.122,0,0,0-.351,5.689,101.872,101.872,0,0,0,2.307,13.307l2.58,11.756a22.523,22.523,0,0,0,1.606,5.248,18.48,18.48,0,0,0,4.331,5.181q3.535,3.256,7.185,6.339a20.078,20.078,0,0,0,12.46,5.54c10.573,1.961,21.326,4.785,30.247,11.685-.1-.077-.038-7.885-.192-8.78-.408-2.366-.726-4.709-2.266-6.308C652.741,587.945,647.042,586.89,642.828,585.017Z" transform="translate(-5.734 -91)" fill="#fbbebe"/>
      <path id="パス_31" data-name="パス 31" d="M642.828,585.017a41.666,41.666,0,0,1-21.214-21.071c-.889-2.022-1.62-4.132-2.476-6.173a46.9,46.9,0,0,0-12.678-17.606c-1.386-1.176-3.013-2.3-4.706-1.991-1.625.3-2.9,1.9-3.462,3.707a15.122,15.122,0,0,0-.351,5.689,101.872,101.872,0,0,0,2.307,13.307l2.58,11.756a22.523,22.523,0,0,0,1.606,5.248,18.48,18.48,0,0,0,4.331,5.181q3.535,3.256,7.185,6.339a20.078,20.078,0,0,0,12.46,5.54c10.573,1.961,21.326,4.785,30.247,11.685-.1-.077-.038-7.885-.192-8.78-.408-2.366-.726-4.709-2.266-6.308C652.741,587.945,647.042,586.89,642.828,585.017Z" transform="translate(-5.734 -91)" opacity="0.1"/>
      <ellipse id="楕円形_5" data-name="楕円形 5" cx="12.949" cy="13.02" rx="12.949" ry="13.02" transform="translate(732.572 377.991)" fill="#2f2e41"/>
      <path id="パス_32" data-name="パス 32" d="M743.24,474.145c-3.515-.39-7.419-.679-10.236,1.471a13.979,13.979,0,0,0-3.5,4.769c-2.707,5.083-5.377,10.262-6.739,15.863-1.156,4.752-1.348,9.721-2.779,14.4-2.655,8.673-9.458,15.994-10.236,25.036-.348,4.046.329,8.783-2.622,11.555a17.354,17.354,0,0,1-2.327,1.65,17.6,17.6,0,0,0-5.1,5.241c-1.105,1.756-1.956,3.773-3.619,5.005-2.633,1.952-7,1.753-8.3,4.772-1.334,3.1,2.051,6.555,1.267,9.842-.639,2.677-3.623,3.9-5.678,5.723-2.633,2.33-3.837,5.846-4.935,9.2a30.534,30.534,0,0,1-24.778-6.179c3.615,8.9,3.693,18.728,3.85,28.343.051,3.119-.046,6.62-2.273,8.792,10.309.221,20.363,3.014,30.423,5.287,4.4.994,9.17,1.857,13.27-.024A21.653,21.653,0,0,0,705,620.05c5.473-5.55,11.214-11.6,12.553-19.3.75-4.314.024-8.741.222-13.115.246-5.42,1.9-10.658,3.322-15.893a187.525,187.525,0,0,0,5.815-32.726c.6-6.824,6.49-12.317,9.593-18.416,5.858-11.514,11.844-23.506,12.285-36.431C748.941,479.844,747.515,474.619,743.24,474.145Z" transform="translate(-5.734 -91)" fill="#2f2e41"/>
      <path id="パス_33" data-name="パス 33" d="M743.24,474.145c-3.515-.39-7.419-.679-10.236,1.471a13.979,13.979,0,0,0-3.5,4.769c-2.707,5.083-5.377,10.262-6.739,15.863-1.156,4.752-1.348,9.721-2.779,14.4-2.655,8.673-9.458,15.994-10.236,25.036-.348,4.046.329,8.783-2.622,11.555a17.354,17.354,0,0,1-2.327,1.65,17.6,17.6,0,0,0-5.1,5.241c-1.105,1.756-1.956,3.773-3.619,5.005-2.633,1.952-7,1.753-8.3,4.772-1.334,3.1,2.051,6.555,1.267,9.842-.639,2.677-3.623,3.9-5.678,5.723-2.633,2.33-3.837,5.846-4.935,9.2a30.534,30.534,0,0,1-24.778-6.179c3.615,8.9,3.693,18.728,3.85,28.343.051,3.119-.046,6.62-2.273,8.792,10.309.221,20.363,3.014,30.423,5.287,4.4.994,9.17,1.857,13.27-.024A21.653,21.653,0,0,0,705,620.05c5.473-5.55,11.214-11.6,12.553-19.3.75-4.314.024-8.741.222-13.115.246-5.42,1.9-10.658,3.322-15.893a187.525,187.525,0,0,0,5.815-32.726c.6-6.824,6.49-12.317,9.593-18.416,5.858-11.514,11.844-23.506,12.285-36.431C748.941,479.844,747.515,474.619,743.24,474.145Z" transform="translate(-5.734 -91)" opacity="0.1"/>
      <path id="パス_34" data-name="パス 34" d="M731.112,681.643c-11.088-5.275-19.2-15.113-28.167-23.531C685.829,642.04,664.9,630.663,646.9,615.6c-11.929-9.988-22.6-21.618-35.7-29.98a88.878,88.878,0,0,0-38.24-13.4,10.769,10.769,0,0,0-4.683.234,11.088,11.088,0,0,0-4.353,3.443,136.169,136.169,0,0,0-15.413,21.195c-22.81,38.721-55.209,71.279-82.052,107.29a4.815,4.815,0,0,0-.321,6.5l5.46,10.7c3.055,5.987,7.951,12.962,14.538,11.772,3.01-.544,5.409-2.758,7.625-4.877l24.513-23.432,25.7-24.567c15.058-14.394,30.374-29.123,40.19-47.536,7.672,13.306,21.283,22.014,30.622,34.2,3.552,4.633,6.454,9.728,9.625,14.633,5.083,7.862,10.864,15.241,16.635,22.608L670.526,742c4.02,5.132,8.152,10.366,13.65,13.846,6.982,4.42,15.474,5.585,23.692,6.321a313.636,313.636,0,0,0,33.311,1.2c8.476-.145,17.217-.7,24.823-4.465s13.853-11.492,13.458-20.006c-.206-4.428-2.13-8.581-4.249-12.468C764.68,707.115,750.918,691.066,731.112,681.643Z" transform="translate(-5.734 -91)" fill="#2f2e41"/>
      <ellipse id="楕円形_6" data-name="楕円形 6" cx="9.961" cy="10.015" rx="9.961" ry="10.015" transform="translate(743.529 390.009)" fill="#2f2e41"/>
      <path id="パス_35" data-name="パス 35" d="M757.021,483.5c2.428,4.288,2.429,9.624,1.093,14.372s-3.887,9.042-6.411,13.273c-2.484,4.164-5,8.367-8.328,11.882,15.374.736,30.279-5.295,43.847-12.6,10.915-5.879,21.807-13.136,27.633-24.122-3.407,1.023-7.162.013-10.177-1.881a37.869,37.869,0,0,1-7.8-7.263l-7.719-8.683a34.647,34.647,0,0,1-4.747-6.231,17.516,17.516,0,0,1-2.038-10.072,57.575,57.575,0,0,1-10.214,8.476c-5.513,3.588-11.59,6.191-17.115,9.758-1.96,1.265-6.315,3.3-5.194,5.86C750.948,478.761,755.468,480.756,757.021,483.5Z" transform="translate(-5.734 -91)" fill="#fbbebe"/>
      <path id="パス_36" data-name="パス 36" d="M757.021,483.5c2.428,4.288,2.429,9.624,1.093,14.372s-3.887,9.042-6.411,13.273c-2.484,4.164-5,8.367-8.328,11.882,15.374.736,30.279-5.295,43.847-12.6,10.915-5.879,21.807-13.136,27.633-24.122-3.407,1.023-7.162.013-10.177-1.881a37.869,37.869,0,0,1-7.8-7.263l-7.719-8.683a34.647,34.647,0,0,1-4.747-6.231,17.516,17.516,0,0,1-2.038-10.072,57.575,57.575,0,0,1-10.214,8.476c-5.513,3.588-11.59,6.191-17.115,9.758-1.96,1.265-6.315,3.3-5.194,5.86C750.948,478.761,755.468,480.756,757.021,483.5Z" transform="translate(-5.734 -91)" opacity="0.1"/>
      <path id="パス_37" data-name="パス 37" d="M757.231,485.016c-2.889,4.859-3.509,10.6,0,15.023.437.551,2.059,3.97,2.759,4a2.613,2.613,0,0,0,1.755-.888c3.734-3.413,6.469-7.766,9.75-11.622s7.418-7.369,12.4-8.146c6.019-.937,11.83,2.252,17.1,5.329,2.189,1.279,4.458,2.633,5.837,4.768A15.612,15.612,0,0,1,808.749,500c1.819,13.706,1.779,27.584,1.736,41.412-.031,10-.069,20.061-1.959,29.874-.977,5.072-2.445,10.05-3.139,15.169a101.808,101.808,0,0,0-.619,13.61l-.015,19.029a49,49,0,0,0,.738,10.435c.9,4.17,2.877,8.019,4.2,12.076a79.667,79.667,0,0,1,2.78,14.272l2.6,19.705c.82,6.206,1.426,12.995-2.326,17.99-1.7,2.259-3.926,4.067-5.646,6.307-6.442,8.389-4.375,20.359-7.062,30.607a38.358,38.358,0,0,1-12.493,19.151c-4.6,3.911-10.549,6.988-16.475,5.888-8-1.486-12.807-9.828-14.988-17.71s-2.977-16.461-7.7-23.121c-3.859-5.437-9.838-8.857-15.245-12.739s-10.689-8.885-11.866-15.459c-.514-2.871-.194-5.829-.5-8.73a20.656,20.656,0,0,0-12.747-16.738c-4.1-1.593-9.154-2.162-11.46-5.919,5.955-3.356,9.908-9.558,11.991-16.095s2.507-13.473,2.917-20.325l1.368-22.9c.611-10.233.889-20.375,5.4-29.571,2.015-4.111,4.521-7.959,6.618-12.028a135.3,135.3,0,0,0,7.089-17.648c3.267-9.382,6.535-18.768,9.447-28.267,1.388-4.527,2.721-9.14,5.194-13.171S752.6,485.886,757.231,485.016Z" transform="translate(-5.734 -91)" fill="#e49356"/>
      <path id="パス_38" data-name="パス 38" d="M706.384,633.777l6.057.219,1.291-9.157a19.2,19.2,0,0,1,1.283-5.339,32.976,32.976,0,0,1,3.483-5.1c5.964-8.425,5.529-19.611,7.007-29.845,1.97-13.649,7.672-26.428,13.312-39l11.761-26.216a28.415,28.415,0,0,0,3.252-14.471c.1-4.053,1.3-18.8,1.409-22.852.039-1.5-3.307-.666-3.984-2-1.475-2.911-3.493,4.983-6.248,6.715s-4.275,4.869-5.445,7.917c-2.535,6.6-4.084,13.549-6.446,20.218s-5.666,13.22-10.98,17.863c-2.415,2.11-5.2,3.783-7.478,6.039-7.318,7.236-8.03,18.663-8.288,28.98C706.218,573.872,705.032,633.777,706.384,633.777Z" transform="translate(-5.734 -91)" fill="#2f2e41"/>
      <path id="パス_39" data-name="パス 39" d="M793.612,474.083c-5.885,2.314-9.112,8.7-10.766,14.828s-2.328,12.668-5.489,18.17c-7.389,12.861-26.229,16.608-31.442,30.505-1.706,4.547-1.632,9.536-2.092,14.374-.946,9.958-4.22,19.578-5.187,29.533-.75,7.712-.1,15.485.545,23.207l6.585,78.535c.951,11.344.927,23.53-1.972,34.535,6.667,1.3,13.6-.44,19.783-3.26s11.83-6.691,17.784-9.976c10.237-5.647,21.526-9.649,30.491-17.172a17.721,17.721,0,0,0,4.108-4.541c1.8-3.105,1.943-6.861,2.8-10.349a56.748,56.748,0,0,1,2.951-8.134,242.312,242.312,0,0,0,8.565-24.214,133.829,133.829,0,0,0,3.939-16.628c.719-4.476,1.107-9,1.494-13.517a80.869,80.869,0,0,1,4.18-20.759,166.314,166.314,0,0,0,9.616-49.745,25.144,25.144,0,0,0-.495-7.323c-.78-2.981-2.54-5.587-3.983-8.307-2.736-5.154-4.379-10.827-6.962-16.061-5.836-11.827-16.141-20.794-26.937-28.31C805.826,475.785,799.618,471.721,793.612,474.083Z" transform="translate(-5.734 -91)" fill="#2f2e41"/>
      <path id="パス_40" data-name="パス 40" d="M655.948,602.2c-4.557-2.654-9.112-5.511-12.542-9.529-1.643-1.925-3-4.085-4.67-5.986-4.063-4.624-9.821-7.492-15.774-8.99s-12.144-1.726-18.28-1.778c-4.105-.034-8.311.024-12.155,1.475s-7.309,4.58-8.052,8.64c-.894,4.885,2.3,9.645,6.13,12.778a29.529,29.529,0,0,0,12.252,5.947,98.284,98.284,0,0,0,11.075,1.3c21.8,2.283,41.255,14.151,60.362,24.957q25.171,14.236,51.321,26.619a102.367,102.367,0,0,0,.86-15.753c-.089-3.932-.283-9.927-4-12.235-4.328-2.69-11.453-3.308-16.335-4.908A262.169,262.169,0,0,1,673.3,611.451Q664.457,607.156,655.948,602.2Z" transform="translate(-5.734 -91)" fill="#fbbebe"/>
      <ellipse id="楕円形_7" data-name="楕円形 7" cx="38.846" cy="39.06" rx="38.846" ry="39.06" transform="translate(706.675 309.886)" fill="#fbbebe"/>
      <path id="パス_41" data-name="パス 41" d="M804.718,518.368c-3.47,4.046-5.206,9.256-7.538,14.057-4.8,9.878-12.32,18.356-16.087,28.675-3.975,10.886-3.841,23.835-11.633,32.386-1.355,1.487-2.99,2.922-3.382,4.9-.233,1.174.009,2.43-.4,3.556-1.117,3.106-6.2,3.263-7.151,6.425-.278.925-.121,1.95-.465,2.853-.779,2.045-3.48,2.358-5.286,3.582-3.77,2.558-3.01,8.5-5.7,12.192-2.129,2.917-6.142,3.895-9.707,3.4s-6.829-2.2-10.076-3.762a9.168,9.168,0,0,0-3.624-1.138,7.605,7.605,0,0,0-4.184,1.429c-7.176,4.563-10.544,13.6-10.494,22.136s2.983,16.762,5.987,24.746a10.651,10.651,0,0,0,1.98,3.686c2.379,2.516,6.523,2.109,9.682.71s6.03-3.6,9.428-4.217c6.011-1.089,11.886,3.042,17.984,2.7,4.468-.249,8.421-2.847,12.133-5.36,5.925-4.011,11.958-8.123,16.315-13.814,2.667-3.485,4.621-7.458,6.947-11.183a129.17,129.17,0,0,1,9.81-13.1l22.4-27.418a44.318,44.318,0,0,0,10.729-20.844c2.13-7.307,4.273-14.7,4.642-22.3.3-6.26-.605-12.511-1.627-18.694-1.005-6.086-2.15-12.24-4.823-17.793C825.714,516.064,813.866,507.7,804.718,518.368Z" transform="translate(-5.734 -91)" fill="#2f2e41"/>
      <circle id="楕円形_8" data-name="楕円形 8" cx="49.023" cy="49.023" r="49.023" transform="translate(763.001 215.203)" fill="#2f2e41"/>
      <path id="パス_42" data-name="パス 42" d="M860.043,395.821a49.026,49.026,0,0,1-75.705-25.741,49.026,49.026,0,1,0,95.631-20.1,49.008,49.008,0,0,1-19.926,45.845Z" transform="translate(-5.734 -91)" fill="#2f2e41"/>
      <circle id="楕円形_9" data-name="楕円形 9" cx="35.95" cy="35.95" r="35.95" transform="translate(736.038 300.994)" fill="#2f2e41"/>
      <ellipse id="楕円形_10" data-name="楕円形 10" cx="31.865" cy="24.92" rx="31.865" ry="24.92" transform="translate(709.892 298.543)" fill="#2f2e41"/>
      <ellipse id="楕円形_11" data-name="楕円形 11" cx="5" cy="7.5" rx="5" ry="7.5" transform="matrix(0.776, -0.631, 0.631, 0.776, 740.651, 359.837)" fill="#fbbebe"/>
      <path id="パス_43" data-name="パス 43" d="M720.011,771.573c0,17.417-10.353,23.5-23.125,23.5-.3,0-.592,0-.885-.011-.592-.013-1.179-.04-1.758-.081-11.527-.815-20.482-7.209-20.482-23.406,0-16.759,21.416-37.909,23.029-39.478l0,0c.062-.062.094-.091.094-.091S720.011,754.159,720.011,771.573Z" transform="translate(-5.734 -91)" fill="#e49356"/>
      <path id="パス_44" data-name="パス 44" d="M696.043,792.406l8.458-11.817-8.48,13.115L696,795.06c-.592-.013-1.179-.04-1.758-.081l.911-17.423-.006-.136.015-.023.087-1.647-8.5-13.147,8.526,11.913.021.349.688-13.164-7.277-13.586,7.366,11.276.717-27.295,0-.094v.091l-.119,21.523,7.245-8.533-7.275,10.387-.192,11.787,6.766-11.313-6.794,13.047-.106,6.553,9.818-15.746-9.857,18.032Z" transform="translate(-5.734 -91)" fill="#3f3d56"/>
    </g>
  </g>
</svg>
